<svg width="130" height="130" viewBox="0 0 130 130" fill="none" xmlns="http://www.w3.org/2000/svg">
<rect x="1" y="1" width="127.136" height="127.136" rx="5" fill="#0F0F0F" stroke="#5F5F5F" stroke-width="2"/>
<path d="M63.3929 45.7144H66.6072C66.8929 45.7144 67.0358 45.8572 67.0358 46.1429V83.8572C67.0358 84.1429 66.8929 84.2858 66.6072 84.2858H63.3929C63.1072 84.2858 62.9644 84.1429 62.9644 83.8572V46.1429C62.9644 45.8572 63.1072 45.7144 63.3929 45.7144Z" fill="#FEFEFE"/>
<path d="M47.0001 62.9644H83.0001C83.2858 62.9644 83.4287 63.1072 83.4287 63.3929V66.6072C83.4287 66.8929 83.2858 67.0358 83.0001 67.0358H47.0001C46.7144 67.0358 46.5715 66.8929 46.5715 66.6072V63.3929C46.5715 63.1072 46.7144 62.9644 47.0001 62.9644Z" fill="#FEFEFE"/>
</svg>
