<svg width="129" height="129" viewBox="0 0 129 129" fill="none" xmlns="http://www.w3.org/2000/svg">
<path d="M0 6C0 2.68629 2.68629 0 6 0H23V129H6C2.68629 129 0 126.314 0 123V6Z" fill="url(#paint0_linear_10_25)"/>
<path d="M97 0H123C126.314 0 129 2.68629 129 6V123C129 126.314 126.314 129 123 129H97V0Z" fill="url(#paint1_linear_10_25)"/>
<rect x="23" width="32" height="129" fill="url(#paint2_linear_10_25)"/>
<rect x="55" width="42" height="129" fill="#FD61C4"/>
<path d="M9.10311 46.2535C10.2078 45.1625 11.8068 43.9603 13.517 43.6045C14.1618 43.4704 14.8252 43.565 15.471 43.6942L16.6547 43.9309C18.4142 44.2828 19.8502 45.5505 20.4176 47.2527L21 49V52H33.7675C34.2451 52 34.7121 52.1414 35.1095 52.4063L35.3796 52.5864C35.7747 52.8498 36.2626 52.9343 36.7233 52.8192C37.4736 52.6316 38 51.9574 38 51.184V51.0715C38 50.6994 38.1135 50.3361 38.3253 50.0301L41.0088 46.154C41.9427 44.805 43.479 44 45.1198 44H49.4645C51.4931 44 53.2131 45.4917 53.5 47.5C53.7869 49.5083 55.5069 51 57.5355 51H61.8392C62.9026 51 63.9224 51.4224 64.6744 52.1744C65.7862 53.2862 67.4452 53.6455 68.9174 53.0935L69.6211 52.8296C70.2023 52.6116 70.818 52.5 71.4387 52.5H78.75C79.1642 52.5 79.5 52.1642 79.5 51.75C79.5 51.3358 79.8358 51 80.25 51H81.177C81.3904 51 81.6018 51.0407 81.7999 51.1199L84.4239 52.1695C85.5974 52.6389 86.9348 52.1305 87.5 51L88.452 48.4613C88.8062 47.5169 89.4793 46.7261 90.3551 46.2257C91.6842 45.4662 93.3158 45.4662 94.6449 46.2257L94.8895 46.3654C95.6172 46.7813 96.4409 47 97.279 47H98L100.5 44L101.852 43.6621C103.561 43.2349 105.366 43.4331 106.942 44.2209C107.967 44.7333 109.096 45 110.242 45H111V44H113L114.841 44.3683C116.806 44.7611 118.428 46.1405 119.131 48.0161C119.375 48.6667 119.5 49.356 119.5 50.0509V73.5L119.451 73.9948C119.188 76.6222 117.124 78.7084 114.5 79H14.5H13C10.2386 79 8 76.7614 8 74V49.1667C8 48.0848 8.33338 47.0137 9.10311 46.2535Z" fill="#D9D9D9" stroke="#D9D9D9"/>
<path d="M12.7061 74C11.9541 74 11.5781 73.5972 11.5781 72.7915V52.1021C11.5781 51.2964 11.9541 50.8936 12.7061 50.8936H15.1553C15.9072 50.8936 16.2832 51.2964 16.2832 52.1021V72.7915C16.2832 73.5972 15.9072 74 15.1553 74H12.7061ZM22.0195 74C21.375 74 21.0527 73.6777 21.0527 73.0332V58.0479C21.0527 57.4033 21.375 57.0811 22.0195 57.0811H24.5654C25.21 57.0811 25.5322 57.4033 25.5322 58.0479V58.9824H25.5967C26.0908 58.1338 26.7192 57.5537 27.4819 57.2422C28.2446 56.9199 29.1631 56.7588 30.2373 56.7588C31.9131 56.7588 33.2988 57.2852 34.3945 58.3379C35.4902 59.3906 36.0381 61.3135 36.0381 64.1064V73.0332C36.0381 73.6777 35.7158 74 35.0713 74H32.4932C31.8486 74 31.5264 73.6777 31.5264 73.0332V65.2666C31.5264 62.9248 31.3652 61.4478 31.043 60.8354C30.7207 60.2231 30.0278 59.917 28.9644 59.917C27.8364 59.917 26.9878 60.3574 26.4185 61.2383C25.8491 62.1084 25.5645 63.9238 25.5645 66.6846V73.0332C25.5645 73.6777 25.2422 74 24.5977 74H22.0195ZM39.8247 60.3037C39.1909 60.3037 38.874 60.0352 38.874 59.498V57.8867C38.874 57.3496 39.1909 57.0811 39.8247 57.0811H40.7271V54.8252C40.7271 52.8486 41.291 51.5327 42.4189 50.8774C43.5469 50.2222 44.8896 49.8945 46.4473 49.8945C47.1885 49.8945 47.8223 49.9375 48.3486 50.0234C48.8857 50.1094 49.3584 50.2168 49.7666 50.3457C50.1533 50.4746 50.293 50.7432 50.1855 51.1514L49.7021 52.9722C49.6055 53.3267 49.3584 53.4341 48.9609 53.2944C48.7246 53.2085 48.3916 53.1494 47.9619 53.1172C47.543 53.0742 47.21 53.0527 46.9629 53.0527C46.1787 53.0527 45.6953 53.3267 45.5127 53.8745C45.3301 54.4224 45.2388 55.2764 45.2388 56.4365V57.0811H47.3657C47.9995 57.0811 48.3164 57.3496 48.3164 57.8867V59.498C48.3164 60.0352 47.9995 60.3037 47.3657 60.3037H45.2388V73.0332C45.2388 73.6777 44.9165 74 44.272 74H41.6938C41.0493 74 40.7271 73.6777 40.7271 73.0332V60.3037H39.8247ZM50.4756 69.4883C50.4756 67.3398 51.5015 65.7822 53.5532 64.8154C55.605 63.8486 57.9468 63.333 60.5786 63.2686V62.624C60.5786 61.6357 60.3315 60.9375 59.8374 60.5293C59.3433 60.1211 58.6558 59.917 57.7749 59.917C57.1519 59.917 56.5986 60.0083 56.1152 60.1909C55.6426 60.3628 55.229 60.5669 54.8745 60.8032C54.5308 61.0288 54.2192 61.2598 53.9399 61.4961C53.4458 61.9258 53.0376 61.9473 52.7153 61.5605L51.3779 59.917C51.0449 59.5088 51.1255 59.0898 51.6196 58.6602C51.9956 58.3271 52.4307 58.0371 52.9248 57.79C53.4297 57.543 54.0957 57.312 54.9229 57.0972C55.75 56.8716 56.8242 56.7588 58.1455 56.7588C60.3799 56.7588 62.0933 57.2744 63.2856 58.3057C64.4888 59.3369 65.0903 60.8569 65.0903 62.8657V73.0332C65.0903 73.6777 64.7681 74 64.1235 74H61.481C60.9009 74 60.6108 73.6777 60.6108 73.0332V72.5498H60.5786C59.9448 73.1621 59.1821 73.6133 58.2905 73.9033C57.4097 74.1826 56.5986 74.3223 55.8574 74.3223C54.0957 74.3223 52.7583 73.8926 51.8452 73.0332C50.9321 72.1631 50.4756 70.9814 50.4756 69.4883ZM55.2451 69.3916C55.2451 69.7676 55.3203 70.0952 55.4707 70.3745C55.6211 70.6431 55.8574 70.8418 56.1797 70.9707C56.502 71.0996 56.8618 71.1641 57.2593 71.1641C57.8071 71.1641 58.3389 71.0889 58.8545 70.9385C59.3701 70.7881 59.9448 70.4336 60.5786 69.875V66.3784C58.7739 66.5825 57.5654 66.8457 56.9531 67.168C56.3408 67.4902 55.9004 67.8232 55.6318 68.167C55.374 68.5107 55.2451 68.9189 55.2451 69.3916ZM70.4561 74C69.8115 74 69.4893 73.6777 69.4893 73.0332V58.0479C69.4893 57.4033 69.8115 57.0811 70.4561 57.0811H73.002C73.6465 57.0811 73.9688 57.4033 73.9688 58.0479V58.9824H74.0332C74.5273 58.1338 75.1558 57.5537 75.9185 57.2422C76.6812 56.9199 77.5996 56.7588 78.6738 56.7588C80.3496 56.7588 81.7354 57.2852 82.8311 58.3379C83.9268 59.3906 84.4746 61.3135 84.4746 64.1064V73.0332C84.4746 73.6777 84.1523 74 83.5078 74H80.9297C80.2852 74 79.9629 73.6777 79.9629 73.0332V65.2666C79.9629 62.9248 79.8018 61.4478 79.4795 60.8354C79.1572 60.2231 78.4644 59.917 77.4009 59.917C76.2729 59.917 75.4243 60.3574 74.855 61.2383C74.2856 62.1084 74.001 63.9238 74.001 66.6846V73.0332C74.001 73.6777 73.6787 74 73.0342 74H70.4561ZM88.2612 60.3037C87.6274 60.3037 87.3105 60.0352 87.3105 59.498V57.8867C87.3105 57.3496 87.6274 57.0811 88.2612 57.0811H89.3569V56.5171C89.3569 56.0337 89.4697 55.5933 89.6953 55.1958L90.936 53.0205C91.1724 52.6123 91.4517 52.4082 91.7739 52.4082H92.9019C93.5464 52.4082 93.8687 52.7305 93.8687 53.375V57.0811H96.479C97.1128 57.0811 97.4297 57.3496 97.4297 57.8867V59.498C97.4297 60.0352 97.1128 60.3037 96.479 60.3037H93.8687V68.2959C93.8687 69.3916 93.9438 70.1812 94.0942 70.6646C94.2554 71.1372 94.6636 71.3735 95.3188 71.3735C95.6519 71.3735 96.0278 71.3198 96.4468 71.2124C96.8657 71.0942 97.1934 70.9814 97.4297 70.874C97.8057 70.7021 98.0527 70.8257 98.1709 71.2446L98.6543 73.0815C98.751 73.4468 98.6113 73.7153 98.2354 73.8872C97.8809 74.0483 97.3921 74.1934 96.769 74.3223C96.1567 74.4619 95.5391 74.5317 94.916 74.5317C93.3799 74.5317 92.0693 74.2148 90.9844 73.5811C89.8994 72.9473 89.3569 71.6421 89.3569 69.6655V60.3037H88.2612ZM102.65 74C102.006 74 101.684 73.6777 101.684 73.0332V58.0479C101.684 57.4033 102.006 57.0811 102.65 57.0811H105.229C105.873 57.0811 106.195 57.4033 106.195 58.0479V73.0332C106.195 73.6777 105.873 74 105.229 74H102.65ZM102.65 54.5996C102.006 54.5996 101.684 54.2773 101.684 53.6328V51.5703C101.684 50.9258 102.006 50.6035 102.65 50.6035H105.229C105.873 50.6035 106.195 50.9258 106.195 51.5703V53.6328C106.195 54.2773 105.873 54.5996 105.229 54.5996H102.65ZM111.545 74C110.9 74 110.578 73.6777 110.578 73.0332V54.0034C110.578 53.52 110.691 53.0796 110.917 52.6821L112.157 50.5068C112.394 50.0986 112.673 49.8945 112.995 49.8945H114.123C114.768 49.8945 115.09 50.2168 115.09 50.8613V73.0332C115.09 73.6777 114.768 74 114.123 74H111.545Z" fill="#E50817"/>
<defs>
<linearGradient id="paint0_linear_10_25" x1="11.5" y1="0" x2="11.5" y2="129" gradientUnits="userSpaceOnUse">
<stop stop-color="#2F8332"/>
<stop offset="1" stop-color="#923AB6"/>
</linearGradient>
<linearGradient id="paint1_linear_10_25" x1="113" y1="0" x2="113" y2="129" gradientUnits="userSpaceOnUse">
<stop stop-color="#D0BBFF"/>
<stop offset="1" stop-color="#2474EE"/>
</linearGradient>
<linearGradient id="paint2_linear_10_25" x1="39" y1="0" x2="39" y2="129" gradientUnits="userSpaceOnUse">
<stop stop-color="#FCC043"/>
<stop offset="1" stop-color="#D5473B"/>
</linearGradient>
</defs>
</svg>
