<svg width="130" height="130" viewBox="0 0 130 130" fill="none" xmlns="http://www.w3.org/2000/svg">
<rect width="129.136" height="129.136" rx="6" fill="url(#paint0_linear_12_28)"/>
<ellipse cx="22.5" cy="44" rx="8.5" ry="10" fill="#D9D9D9"/>
<ellipse cx="102.5" cy="44" rx="8.5" ry="10" fill="#D9D9D9"/>
<path d="M45.2528 75.0226C44.7835 71.2678 49.0533 68.79 52.0805 71.0604L58.3387 75.7541C59.4264 76.5698 60.7127 77.0792 62.0639 77.2293L71.874 78.3193C75.938 78.7709 80.0451 78.6508 84.0758 77.9627L94.4752 76.1872C97.1183 75.7359 99.611 74.6454 101.736 73.0105L104.29 71.0464C104.756 70.6877 105.304 70.4494 105.884 70.3527C108.355 69.9408 110.474 72.1294 109.983 74.5859L109.778 75.6123C109.597 76.5137 109.133 77.3336 108.453 77.952L106.534 79.6966C104.877 81.203 102.837 82.2237 100.637 82.6467L87.939 85.0887C81.3623 86.3534 74.6168 86.4737 67.9992 85.4443L59.2184 84.0784C56.7673 83.6971 54.4247 82.801 52.3448 81.4491L47.1708 78.086C46.1113 77.3974 45.4096 76.2765 45.2528 75.0226Z" fill="#FBFFFD"/>
<defs>
<linearGradient id="paint0_linear_12_28" x1="64.568" y1="0" x2="64.568" y2="129.136" gradientUnits="userSpaceOnUse">
<stop offset="0.605" stop-color="#E7B308"/>
<stop offset="1" stop-color="#EDC94A"/>
</linearGradient>
</defs>
</svg>
